<?xml version="1.0" encoding="iso-8859-1"?>
<!-- Generator: Adobe Illustrator 21.0.0, SVG Export Plug-In . SVG Version: 6.00 Build 0)  -->
<svg version="1.1" id="Layer_1" xmlns="http://www.w3.org/2000/svg" xmlns:xlink="http://www.w3.org/1999/xlink" x="0px" y="0px"
	 width="595.28px" height="595.28px" viewBox="0 0 595.28 595.28" enable-background="new 0 0 595.28 595.28" xml:space="preserve">
<g>
	<path fill="#F68F8D" d="M108.113,232.618c4.518-25.365,17.418-43.905,38.832-58.231s48.741-19.501,73.91-13.997
		c15.381,3.364,30.207,10.822,40.398,22.823c10.191,12.001,15.191,28.847,11.041,44.035c24.086-13.473,54.069-15.913,80.016-6.512
		c7.178,2.601,14.33,6.292,18.764,12.507c3.963,5.554,5.329,12.51,6.27,19.268c2.179,15.653,2.605,31.549,1.266,47.295
		c-0.53,6.236-1.38,12.596-4.231,18.166c-8.289,16.193-29.376,19.886-47.482,21.654c18.401,13.681,37.364,27.993,48.387,48.099
		c11.023,20.107,11.797,47.768-4.467,63.931c-8.306,8.255-19.717,12.431-30.746,16.371c-5.722,2.044-11.692,4.12-17.731,3.449
		c-5.701-0.633-10.822-3.646-15.746-6.59c-17.508-10.47-35.723-21.629-46.185-39.141c0.025,22.637-6.435,45.246-18.418,64.451
		c-3.362,5.389-7.206,10.575-12.152,14.559c-7.378,5.943-16.768,8.854-26.123,10.349c-24.745,3.953-53.589-3.394-65.964-25.184
		c-2.276-4.008-3.944-8.509-3.792-13.116c0.265-8.024,5.828-14.759,11.108-20.807c-22.969,5.709-47.57,7.84-70.068,0.491
		s-42.418-25.649-46.691-48.929c-2.76-15.035,1.333-31.191,10.918-43.098s24.494-19.356,39.771-19.871
		c-24.489-13.235-40.391-40.968-39.442-68.788s18.702-54.406,44.036-65.941c5.109-2.326,10.928-4.091,16.279-2.394
		C105.223,209.165,110.763,227.669,108.113,232.618z"/>
	<path fill="#F68F8D" d="M471.512,281.986c9.86,0.628,18.09,9.251,20.023,18.941s-1.599,19.894-7.655,27.701
		c21.393-7.076,45.673-4.907,65.474,5.849c7.318,3.975,14.204,9.257,18.345,16.482c4.141,7.225,5.094,16.653,0.858,23.822
		c-4.034,6.827-11.851,10.474-19.514,12.513c-7.663,2.039-15.697,2.905-22.955,6.098c9.753,4.066,20.013,8.524,26.176,17.107
		c5.146,7.167,6.706,16.266,7.426,25.059c1.235,15.092-0.615,32.431-12.66,41.608c-6.763,5.153-15.517,6.705-23.903,8.103
		c-2.601,0.434-5.373,0.849-7.792-0.199c-2.035-0.881-3.516-2.677-4.784-4.496c-4.233-6.071-7.008-13.152-8.025-20.483
		c-1.825,21.58-20.525,40.498-42.082,42.572c-3.635,0.35-7.434,0.245-10.748-1.291c-7.783-3.607-10.145-13.366-11.306-21.865
		c-1.316-9.638-1.985-20.45,4.076-28.058c-13.385,4.319-28.513,2.921-40.88-3.778c-3.168-1.716-6.278-3.892-7.944-7.087
		c-1.775-3.404-1.658-7.451-1.375-11.279c0.542-7.316,1.606-14.819,5.284-21.166c3.678-6.348,10.516-11.335,17.838-10.881
		c-7.133,0.511-14.037-3.587-18.382-9.268c-4.344-5.681-6.468-12.752-7.749-19.787c-4.01-22.024,3.869-50.117,30.783-47.385
		c14.722,1.494,14.41-6.236,22.12-18.138C448.575,292.779,458.455,281.154,471.512,281.986z"/>
	<path fill="#F6C11E" d="M153.027,302.426c-4.886,11.267-7.205,23.638-6.732,35.91c0.232,6.011,1.18,12.16,4.191,17.368
		c2.938,5.083,7.636,8.915,12.567,12.101c8.192,5.293,17.537,9.173,27.282,9.566c19.9,0.802,38.897-14.599,43.295-34.024
		c6.114-26.998-11.816-41.639-30.298-56.436c-8.067-6.459-11.622-13.148-23.179-10.687
		C166.936,279.039,158.123,290.673,153.027,302.426z"/>
	<path fill="#F6C11E" d="M447.658,396.815c-0.434,3.077-0.743,6.277,0.198,9.238c0.949,2.987,3.072,5.433,5.142,7.786
		c2.843,3.233,5.876,6.596,9.948,7.996c3.509,1.206,7.354,0.79,11.006,0.132c9.105-1.642,18.095-4.795,25.442-10.418
		c7.346-5.623,12.92-13.918,14.004-23.105c2.45-20.753-17.873-30.521-35.81-31.057C454.524,356.697,450.341,377.81,447.658,396.815z
		"/>
	<path fill="#BED665" d="M364.936,105.6c-1.004,19.732,2.857,39.356,4.084,59.076c0.519,8.34,0.267,17.567-5.283,23.815
		c6.088,3.933,13.63,7.998,20.179,4.892c2.753-1.306,4.81-3.709,6.647-6.14c17.805-23.565,22.021-56.709,10.685-83.982
		c-3.691-8.879-8.918-17.232-10.88-26.644c-1.962-9.413,0.362-20.696,8.642-25.583c-4.433,2.617-9.421,1.847-13.78,4.968
		c-4.644,3.325-8.335,9.303-11.035,14.207C368.271,80.967,365.556,93.412,364.936,105.6z"/>
	<path fill="#BED665" d="M435.486,188.862c8.402-8.049,16.935-16.195,27.153-21.758c8.464-4.608,17.81-7.293,26.949-10.349
		c20.21-6.759,39.76-15.49,58.281-26.03c-5.947,27.564-12.148,55.768-27.185,79.623c-15.037,23.855-40.956,42.877-69.13,41.707
		c-11.642-0.484-40.096-4.202-44.531-18.064C402.013,218.328,425.819,198.123,435.486,188.862z"/>
	<g>
		<path fill="#231F20" d="M462.653,425.229c-9.545,0-14.958-4.521-17.916-8.666c-6.379-8.939-6.396-23.619-0.043-35.7
			c8.49-16.145,19.858-17.135,31.895-18.184c3.135-0.273,6.376-0.556,9.646-1.119h-0.001c6.686-1.153,10.548,1.588,12.605,4.09
			c4.974,6.047,5.161,17.877,0.479,30.139c-4.743,12.419-15.476,26.564-31.376,29.015
			C466.053,425.096,464.292,425.229,462.653,425.229z M489.274,366.288c-0.686,0-1.415,0.067-2.19,0.201c-0.001,0-0.001,0-0.001,0
			c-3.476,0.599-6.823,0.89-10.06,1.172c-11.557,1.007-20.685,1.802-27.903,15.53c-5.422,10.31-5.554,23.124-0.313,30.469
			c3.8,5.325,10.149,7.47,18.375,6.204c13.782-2.125,23.225-14.75,27.467-25.857c3.928-10.285,4.063-20.639,0.33-25.178
			C493.58,367.127,491.702,366.288,489.274,366.288z M486.659,364.025h0.01H486.659z"/>
		<path fill="#231F20" d="M463.102,505.227c-4.022,0-8.282-0.753-12.692-2.266c-12.305-4.217-21.731-21.123-21.631-32.853
			c0.045-5.364,2.982-13.569,4.637-17.877c-2.974-0.135-6.805,1.448-10.797,3.101c-7.933,3.285-17.805,7.373-25.49-1.364
			c-7.671-8.722-20.428-38.685-12.532-49.965c2.285-3.263,7.386-5.337,12.785-7.533c5.288-2.15,11.87-4.827,11.175-7.464
			c-1.408-5.342-7.213-9.211-13.358-13.309c-6.054-4.036-12.313-8.209-15.219-14.419c-3.147-6.727-3.026-14.098,0.351-21.315
			c4.403-9.409,14.23-17.541,24.454-20.236c9.034-2.384,17.039,4.507,22.338,9.067c0.781,0.672,1.724,1.483,2.52,2.108
			c1.088-3.119,2.741-9.458,3.818-13.587c1.676-6.422,2.658-10.121,3.364-11.465c4.432-8.427,12.813-14.752,22.995-17.354
			c10.216-2.61,20.715-1.024,28.808,4.351c9.101,6.046,8.323,19.153,7.698,29.684c-0.328,5.521-0.699,11.778,0.927,13.435
			c0.135,0.137,0.438,0.468,1.477,0.417c0.001,0,0.001,0,0.001,0c3.986-0.164,8.367-0.608,13.005-1.078
			c21.413-2.171,48.071-4.872,56.556,19.536c4.924,14.16-0.611,28.596-13.461,35.105c-2.685,1.359-5.617,2.537-8.893,3.567
			c11.826,6.684,22.066,20.554,24.777,34.896c2.529,13.375-1.822,24.5-12.251,31.325c-15.504,10.147-40.226,13.201-56.283,6.957
			c-2.283-0.888-4.351-3.821-6.559-7.419c-0.845,2.83-2.131,8.293-3.979,18.835c-0.161,0.923-0.273,1.559-0.323,1.795
			c-2.108,10.096-7.1,17.639-14.435,21.813C472.773,504.053,468.122,505.227,463.102,505.227z M433.098,447.225
			c1.644,0,3.236,0.303,4.751,1.036c2.099,1.008,1.267,3.123,0.912,4.026c-3.276,8.325-4.953,14.336-4.982,17.865
			c-0.093,10.779,9.119,24.95,18.252,28.081c8.517,2.919,16.257,2.621,22.381-0.864c6.053-3.444,10.206-9.838,12.013-18.49
			c0.045-0.217,0.146-0.795,0.293-1.636c3.684-21.02,5.337-23.647,6.973-24.756c0.688-0.467,1.495-0.635,2.283-0.471
			c1.269,0.265,1.755,1.074,3.2,3.475c0.894,1.483,3.609,5.996,4.825,6.543c14.461,5.625,37.669,2.718,51.726-6.483
			c11.639-7.618,11.31-19.693,10.077-26.213c-3.013-15.934-16.84-31.751-30.193-34.54c-2.543-0.53-2.359-2.622-2.33-2.859
			c0.287-2.325,2.568-2.234,3.799-2.182c0.822,0.033,3.32,0.134,3.985-0.042c4.431-1.168,8.194-2.552,11.508-4.229
			c10.721-5.432,15.141-17.087,10.997-29.003c-7.188-20.676-30.638-18.3-51.329-16.203c-4.715,0.478-9.168,0.929-13.304,1.1h0.001
			c-2.154,0.087-3.919-0.554-5.251-1.91c-3.182-3.24-2.815-9.416-2.352-17.234c0.578-9.734,1.233-20.768-5.473-25.223
			c-6.916-4.594-15.958-5.933-24.803-3.671c-8.813,2.252-16.033,7.66-19.808,14.837c-0.481,0.929-1.851,6.18-2.951,10.399
			c-1.033,3.959-2.102,8.054-3.067,11.252c-1.273,4.213-2.285,7.537-5.176,6.934c-1.768-0.369-3.528-1.885-6.195-4.179
			c-4.773-4.107-11.311-9.733-17.801-8.021c-8.871,2.338-17.391,9.379-21.2,17.52c-1.903,4.066-3.509,10.329-0.351,17.077
			c2.313,4.945,7.981,8.724,13.463,12.378c6.65,4.434,13.528,9.019,15.419,16.194c1.817,6.888-6.652,10.332-14.125,13.371
			c-4.281,1.741-9.135,3.714-10.573,5.769c-5.811,8.301,4.691,35.269,12.19,43.795c4.966,5.643,10.801,3.782,19.823,0.047
			C424.867,448.989,429.129,447.225,433.098,447.225z"/>
		<path fill="#231F20" d="M361.68,203.146c-0.575,0-1.154-0.028-1.739-0.09c-2.358-0.252-2.818-1.89-2.902-2.386
			c-0.431-2.517,2.063-3.705,7.027-6.072c1.165-0.556,2.266-1.08,2.929-1.454c1.854-1.043,3.87-0.98,5.863-0.501
			c-1.614-1.139-3.074-2.363-3.854-3.829c-4.819-9.061-9.181-18.122-9.619-29.328c-0.837-21.34,3.555-40.433,8.203-60.646
			c1.229-5.346,2.501-10.875,3.655-16.404c0.272-1.3,3.024-8.577,4.314-11.897c0.793-2.039,1.941-4.942,2.911-7.191
			c1.355-3.14,2.163-5.039,4.42-4.568c6.944,1.45,6.149,9.265,5.51,15.544c-0.341,3.347-0.692,6.809-0.075,9.152
			c1.762,6.681,5.226,14.55,8.893,22.88c8.283,18.814,17.67,40.139,10.799,56.245c-0.727,1.703-1.46,3.503-2.216,5.356
			c-4.908,12.038-10.472,25.683-20.871,31.539c-2.266,1.276-4.775,0.896-7.192,0.126c-2.345,0.934-4.774,1.495-6.989,2.006
			c-0.001,0-0.001,0-0.001,0c-0.428,0.099-0.856,0.201-1.287,0.304C366.95,202.531,364.37,203.146,361.68,203.146z M370.184,199.193
			h0.01H370.184z M383.294,64.776c-2.177,4.967-6.775,17.155-7.162,18.712c-1.158,5.549-2.436,11.102-3.67,16.473
			c-4.572,19.879-8.891,38.657-8.08,59.33c0.397,10.151,4.501,18.647,9.037,27.176c0.474,0.89,2.614,2.309,4.031,3.248
			c2.706,1.793,4.858,3.219,4.888,5.492c0.048-0.02,0.094-0.042,0.137-0.066c8.882-5.001,14.095-17.789,18.694-29.07
			c0.767-1.879,1.511-3.705,2.247-5.431c6.021-14.113-2.902-34.384-10.775-52.269c-3.748-8.516-7.289-16.559-9.15-23.621
			c-0.85-3.222-0.451-7.142-0.064-10.933C383.909,69.062,384.022,66.211,383.294,64.776z"/>
		<path fill="#231F20" d="M204.943,388.221c-10.027,0-20.263-2.991-30.973-6.661c-2.76-0.947-6.141-1.299-9.721-1.671
			c-5.125-0.533-10.424-1.085-14.604-3.521c-5.833-3.397-8.514-11.671-10.288-17.146c-5.502-16.983-4.17-34.14,3.851-49.615
			c7.433-14.34,20.367-26.374,36.419-33.884c7.681-3.592,20.976,0.421,40.651,12.273l0,0c16.215,9.769,28.398,28.088,31.039,46.669
			c1.986,13.976-1.672,26.811-10.299,36.141C229.003,383.799,217.129,388.221,204.943,388.221z M186.058,279.432
			c-1.87,0-3.267,0.33-4.311,0.818c-27.109,12.684-49.258,41.544-37.632,77.43c1.446,4.462,3.866,11.931,8.048,14.368
			c3.251,1.895,8.006,2.39,12.604,2.868c3.7,0.385,7.527,0.783,10.825,1.915c22.822,7.82,41.862,12.093,61.756-9.419
			c9.724-10.516,10.271-23.229,9.02-32.043c-2.438-17.152-13.69-34.066-28.668-43.09
			C201.086,282.271,191.541,279.432,186.058,279.432z"/>
		<path fill="#231F20" d="M413.807,249.497c-5.167,0-9.612-0.916-12.499-3.443c-2.577-2.257-3.711-5.488-3.369-9.604
			c2.373-28.564,19.357-43.236,43.094-60.845c10.914-8.097,22.849-14.689,34.39-21.065c2.878-1.59,5.754-3.179,8.614-4.79
			c3.632-2.045,18.187-6.73,32.444-10.442c28.527-7.427,31.603-4.996,32.913-3.959c1.776,1.406,4.751,3.76-9.993,37.195
			c-7.288,16.529-15.677,33.147-18.029,36.415c-16.803,23.335-46.008,30.634-72.36,34.696c-2.774,0.428-6.329,1.206-10.092,2.03
			C430.808,247.46,421.507,249.497,413.807,249.497z M400.43,236.657l2.491,0.207c-0.206,2.482,0.344,4.258,1.681,5.428
			c5.29,4.63,21.449,1.092,33.247-1.492c3.843-0.841,7.472-1.636,10.4-2.087c26.604-4.101,53.383-10.897,69.065-32.676
			c2.038-2.831,9.75-18.099,16.638-33.54c9.597-21.514,12.022-30.771,11.971-33.305c-7.116-1.594-52.04,10.75-59.434,14.915
			c-2.872,1.618-5.76,3.213-8.649,4.81c-11.397,6.296-23.183,12.806-33.829,20.704c-23.389,17.353-38.885,30.711-41.09,57.244
			L400.43,236.657z"/>
		<path fill="#231F20" d="M201.983,531.834c-7.299,0-14.873-1.257-22.574-3.779c-18.376-6.02-46.218-29.877-47.024-50.5
			c-0.057-1.445,1.17-7.48,4.864-23.915c0.22-0.98,0.435-1.936,0.607-2.709c-1.334-0.246-4.203-0.178-10.153,1.769
			c-5.994,1.961-12.564,4.964-17.362,7.156c-2.623,1.199-4.518,2.065-5.606,2.433c-18.188,6.145-32.405,3.188-47.536-9.896
			c-21.294-18.412-41.731-49.912-29.25-78.092c3.734-8.434,11.657-18.863,19.716-25.953c1.048-0.922,2.92-1.85,5.887-3.287
			c2.68-1.298,8.856-4.29,9.672-5.927c-1.265-2.927-4.248-5.383-7.403-7.98c-3.637-2.994-7.397-6.09-9.332-10.49
			c-10.914-24.81-17.037-71.434,3.521-97.411c8.579-10.838,32.922-19.641,45.583-9.621c1.321,1.046,2.841,3.588,5.635,8.366
			c1.832,3.132,5.002,8.553,6.884,10.619c1.5-2.837,2.112-7.3,2.707-11.635c0.636-4.636,1.294-9.431,3.109-12.984
			c15.69-30.729,48.518-63.716,86.486-68.137c15.6-1.816,40.041,0.327,53.943,7.057c19.289,9.337,29.063,43.268,23.238,63.465
			c-0.125,0.434-0.257,0.859-0.396,1.275c7.834-1.706,16.997-3.306,25.947-4.452c17.887-2.292,40.74-3.607,48.027,3.13
			c23.285,21.529,38.697,69.128,24.471,100.605c-5.109,11.302-16.728,20.577-25.574,26.368c-3.716,2.431-10.772,6.445-16.041,8.562
			c3.825,4.04,9.359,8.087,15.138,12.313c8.995,6.579,18.297,13.381,23.826,21.829c11.16,17.051,10.579,43.048-1.414,63.221
			c-10.113,17.012-25.909,25.954-43.316,24.53c-3.264-0.267-7.004-0.256-10.961-0.249c-9.395,0.024-20.017,0.047-27.899-3.769
			c-1.896-0.917-5.085-3.868-10.132-8.605c-3.018-2.833-7.71-7.238-10.184-8.993c-1.701,4.895-4.622,19.506-6.281,27.811
			c-1.337,6.69-2.115,10.543-2.554,11.933c-5.674,17.993-16.9,32.063-31.607,39.615C220.445,529.72,211.446,531.834,201.983,531.834
			z M136.545,445.835c2.524,0,4.552,0.606,5.936,2.014c0.975,0.975,0.975,0.975-0.354,6.889c-1.281,5.697-4.682,20.833-4.745,22.686
			c0.714,18.24,26.932,40.426,43.583,45.88c16.389,5.368,32.087,4.593,45.395-2.242c13.511-6.938,23.854-19.962,29.124-36.672
			c0.378-1.199,1.37-6.158,2.419-11.408c6.16-30.82,7.131-32.176,9.868-32.495c2.491-0.288,5.415,2.086,14.922,11.01
			c3.379,3.172,7.584,7.119,8.889,7.751c6.845,3.313,16.867,3.29,25.708,3.269c4.062-0.008,7.906-0.019,11.379,0.265
			c15.436,1.26,29.513-6.794,38.612-22.102c11.054-18.594,11.683-42.414,1.528-57.928c-5.031-7.687-13.959-14.216-22.594-20.531
			c-7.913-5.788-15.388-11.254-19.344-17.297c-0.824-1.256-0.449-2.492,0.123-3.169c1.262-1.493,3.027-0.72,3.692-0.429
			c0.154,0.068,0.395,0.173,0.591,0.249c4.479-1.657,11.707-5.605,16.054-8.449c8.291-5.427,19.143-14.038,23.756-24.244
			c13.163-29.123-1.721-74.914-23.309-94.875c-4.544-4.202-22.205-4.801-46.091-1.566c-10.417,1.411-19.891,3.231-27.214,4.958
			c-3.4,5.174-8.452,7.673-14.522,7l0,0c-1.276-0.142-4.264-0.474-4.766-2.932c-0.313-1.535,0.508-2.864,2.439-3.951
			c2.366-1.332,7.289-2.912,13.633-4.481c0.587-1.185,1.098-2.53,1.533-4.037c5.259-18.239-3.792-49.437-20.613-57.58
			c-12.909-6.249-36.62-8.285-51.186-6.59c-36.132,4.207-67.526,35.9-82.611,65.444c-1.43,2.799-2.029,7.167-2.608,11.39
			c-0.78,5.687-1.587,11.567-4.523,15.278c-0.738,0.933-1.821,1.422-2.972,1.339c-3.135-0.221-5.871-4.361-11.366-13.756
			c-1.564-2.674-3.706-6.335-4.437-6.982c-10.001-7.911-31.347-0.277-38.545,8.816c-19.269,24.349-13.274,68.629-2.864,92.295
			c1.455,3.31,4.602,5.9,7.933,8.643c3.569,2.938,7.26,5.977,8.948,10.178c2.076,5.167-5.517,8.845-12.216,12.09
			c-1.859,0.901-4.174,2.022-4.764,2.541c-7.566,6.656-14.979,16.39-18.447,24.223c-11.375,25.682,7.946,54.99,27.948,72.285
			c13.795,11.929,26.157,14.521,42.665,8.94c0.845-0.285,2.83-1.192,5.128-2.243C119.292,450.269,129.724,445.835,136.545,445.835z
			 M259.195,219.188L259.195,219.188L259.195,219.188z"/>
	</g>
</g>
</svg>
