<svg width="24" height="24" viewBox="0 0 24 24" fill="none" xmlns="http://www.w3.org/2000/svg">
<path d="M17.0647 16.7755L12.6577 21.3661C12.465 21.5671 12.2361 21.7265 11.9842 21.8352C11.7323 21.944 11.4623 22 11.1896 22C10.9169 22 10.6469 21.944 10.3949 21.8352C10.143 21.7265 9.91418 21.5671 9.72145 21.3661L5.31343 16.7755C4.15142 15.565 3.36009 14.0228 3.03951 12.3438C2.71894 10.6648 2.88351 8.92455 3.51243 7.34301C4.14134 5.76147 5.20635 4.40971 6.57277 3.45866C7.9392 2.50762 9.54567 2 11.1891 2C12.8324 2 14.4389 2.50762 15.8053 3.45866C17.1718 4.40971 18.2368 5.76147 18.8657 7.34301C19.4946 8.92455 19.6592 10.6648 19.3386 12.3438C19.018 14.0228 18.2267 15.565 17.0647 16.7755V16.7755Z" stroke="#191A0B" stroke-width="1.5" stroke-linecap="round" stroke-linejoin="round"/>
<path d="M11.1936 13.0896V12.8055C11.1936 11.8853 11.7393 11.3981 12.2849 11.0056C12.8175 10.6267 13.3501 10.1396 13.3501 9.24643C13.3501 8.00145 12.3888 7 11.1936 7C9.99842 7 9.03711 8.00145 9.03711 9.24643" stroke="#191A0B" stroke-width="1.5" stroke-linecap="round" stroke-linejoin="round"/>
<path d="M11.1879 16.3231H11.1996" stroke="#191A0B" stroke-width="1.5" stroke-linecap="round" stroke-linejoin="round"/>
</svg>
